<svg width="71" height="21" viewBox="0 0 71 21" fill="none" xmlns="http://www.w3.org/2000/svg">
<path d="M0.480049 21C0.180049 21 4.89801e-05 20.82 4.89801e-05 20.52V0.48C4.89801e-05 0.18 0.180049 -1.43051e-06 0.480049 -1.43051e-06H4.23005C4.53005 -1.43051e-06 4.68005 0.18 4.68005 0.48V9.99L19.7401 0.569998C20.19 0.299998 20.67 -1.43051e-06 21.2401 -1.43051e-06H26.3701C26.76 -1.43051e-06 26.9701 0.539999 26.4901 0.839998L14.22 8.61L27.45 20.19C27.69 20.43 27.6601 21 27.1801 21H22.59C22.1101 21 21.9 20.82 21.5401 20.49L10.56 10.89L4.68005 14.61V20.52C4.68005 20.82 4.53005 21 4.23005 21H0.480049ZM30.48 21C30.18 21 30 20.82 30 20.52V0.48C30 0.18 30.18 -1.43051e-06 30.48 -1.43051e-06H34.23C34.53 -1.43051e-06 34.68 0.18 34.68 0.48V20.52C34.68 20.82 34.53 21 34.23 21H30.48ZM39.064 21C38.764 21 38.584 20.82 38.584 20.52V0.48C38.584 0.18 38.764 -1.43051e-06 39.064 -1.43051e-06H44.494C44.794 -1.43051e-06 44.974 0.149998 45.154 0.449998L54.424 15.6H54.844L64.114 0.449998C64.294 0.149998 64.474 -1.43051e-06 64.774 -1.43051e-06H70.234C70.534 -1.43051e-06 70.684 0.18 70.684 0.48V20.52C70.684 20.82 70.534 21 70.234 21H66.484C66.184 21 66.004 20.82 66.004 20.52V6.24H65.674L56.974 20.52C56.794 20.82 56.584 21 56.254 21H53.014C52.714 21 52.504 20.82 52.324 20.52L43.594 6.24H43.264V20.52C43.264 20.82 43.114 21 42.814 21H39.064Z" fill="#000B57"/>
</svg>
